<svg width="494" height="399" viewBox="0 0 494 399" fill="none" xmlns="http://www.w3.org/2000/svg">
<path fill-rule="evenodd" clip-rule="evenodd" d="M474.897 1.08141C475.957 0.196242 477.533 0.337677 478.419 1.39732L492.843 18.6651C493.729 19.7248 493.587 21.3014 492.527 22.1865C491.468 23.0717 489.891 22.9303 489.006 21.8706L477.537 8.14134L474.602 7.84304L460.835 19.3434C459.775 20.2286 458.199 20.0871 457.314 19.0275C456.428 17.9679 456.57 16.3913 457.629 15.5061L474.897 1.08141ZM477.369 18.2895C476.95 21.623 476.492 24.9591 475.993 28.2966L471.048 27.5578C471.541 24.2589 471.994 20.9615 472.408 17.6668L477.369 18.2895ZM474.381 38.2896C473.807 41.598 473.194 44.9066 472.54 48.2144L467.635 47.2459C468.281 43.9761 468.887 40.7055 469.454 37.4354L474.381 38.2896ZM470.464 58.1203C469.737 61.3995 468.971 64.6767 468.165 67.9509L463.31 66.7556C464.107 63.519 464.864 60.2794 465.583 57.0379L470.464 58.1203ZM465.633 77.7439C464.754 80.9883 463.836 84.2286 462.878 87.4638L458.084 86.0447C459.03 82.8466 459.938 79.6434 460.807 76.4363L465.633 77.7439ZM459.896 97.1238C458.867 100.326 457.799 103.522 456.691 106.711L451.968 105.071C453.063 101.918 454.119 98.7591 455.136 95.5937L459.896 97.1238ZM453.265 116.218C452.087 119.37 450.87 122.515 449.614 125.65L444.973 123.791C446.214 120.692 447.417 117.584 448.581 114.467L453.265 116.218ZM445.749 134.982C444.424 138.078 443.06 141.163 441.658 144.238L437.109 142.163C438.495 139.124 439.843 136.075 441.152 133.015L445.749 134.982ZM437.36 153.374C435.89 156.406 434.381 159.425 432.834 162.431L428.388 160.143C429.917 157.172 431.408 154.188 432.861 151.193L437.36 153.374ZM428.11 171.35C426.498 174.308 424.847 177.252 423.159 180.181L418.827 177.684C420.496 174.789 422.126 171.88 423.719 168.957L428.11 171.35ZM418.013 188.866C416.261 191.742 414.472 194.603 412.645 197.447L408.438 194.745C410.244 191.934 412.012 189.107 413.742 186.265L418.013 188.866ZM407.085 205.876C405.198 208.664 403.273 211.435 401.31 214.187L397.239 211.284C399.178 208.565 401.08 205.827 402.945 203.073L407.085 205.876ZM395.347 222.339C393.327 225.031 391.27 227.704 389.176 230.358L385.251 227.26C387.32 224.639 389.352 221.998 391.348 219.338L395.347 222.339ZM382.821 238.211C380.672 240.8 378.487 243.369 376.265 245.918L372.497 242.632C374.692 240.114 376.85 237.576 378.973 235.018L382.821 238.211ZM369.533 253.45C367.261 255.931 364.952 258.39 362.608 260.827L359.005 257.36C361.321 254.952 363.602 252.523 365.846 250.073L369.533 253.45ZM355.514 268.02C353.123 270.385 350.697 272.728 348.234 275.048L344.806 271.408C347.238 269.117 349.635 266.802 351.997 264.466L355.514 268.02ZM340.798 281.883C338.294 284.129 335.755 286.351 333.181 288.548L329.935 284.745C332.478 282.574 334.986 280.379 337.459 278.161L340.798 281.883ZM325.422 295.01C322.812 297.131 320.166 299.227 317.486 301.299L314.429 297.342C317.077 295.296 319.69 293.225 322.27 291.129L325.422 295.01ZM309.428 307.372C306.717 309.365 303.971 311.333 301.191 313.275L298.328 309.176C301.075 307.257 303.788 305.313 306.467 303.343L309.428 307.372ZM292.859 318.949C290.052 320.812 287.212 322.649 284.339 324.459L281.674 320.228C284.514 318.439 287.32 316.624 290.094 314.783L292.859 318.949ZM275.76 329.724C272.868 331.453 269.944 333.155 266.987 334.83L264.523 330.479C267.445 328.824 270.336 327.141 273.194 325.432L275.76 329.724ZM258.175 339.688C255.211 341.278 252.216 342.841 249.19 344.377L246.927 339.918C249.92 338.4 252.881 336.854 255.812 335.282L258.175 339.688ZM240.151 348.836C237.125 350.287 234.068 351.711 230.982 353.107L228.921 348.551C231.974 347.17 234.997 345.762 237.989 344.327L240.151 348.836ZM221.73 357.169C218.652 358.481 215.544 359.766 212.408 361.023L210.547 356.382C213.651 355.138 216.725 353.867 219.77 352.57L221.73 357.169ZM202.954 364.695C199.833 365.869 196.685 367.015 193.508 368.135L191.846 363.419C194.99 362.311 198.105 361.176 201.193 360.015L202.954 364.695ZM183.895 371.411C180.73 372.453 177.539 373.468 174.32 374.456L172.853 369.676C176.039 368.698 179.198 367.693 182.331 366.662L183.895 371.411ZM164.621 377.328C161.399 378.247 158.151 379.139 154.877 380.003L153.6 375.169C156.843 374.313 160.059 373.429 163.249 372.519L164.621 377.328ZM145.12 382.48C141.842 383.279 138.539 384.05 135.21 384.795L134.119 379.915C137.417 379.178 140.689 378.413 143.936 377.622L145.12 382.48ZM125.419 386.889C122.132 387.561 118.822 388.206 115.487 388.825L114.575 383.909C117.88 383.296 121.161 382.656 124.418 381.991L125.419 386.889ZM105.538 390.578C102.251 391.128 98.942 391.651 95.6094 392.149L94.871 387.204C98.1751 386.71 101.456 386.191 104.714 385.647L105.538 390.578ZM85.5422 393.563C82.2474 393.998 78.9306 394.407 75.5917 394.791L75.0208 389.823C78.3323 389.443 81.6217 389.037 84.8889 388.606L85.5422 393.563ZM65.5595 395.86C62.2086 396.19 58.8359 396.494 55.4415 396.773L55.0321 391.79C58.3999 391.513 61.7458 391.211 65.0699 390.884L65.5595 395.86ZM45.4658 397.514C42.1199 397.737 38.7534 397.935 35.3661 398.108L35.1108 393.115C38.4726 392.943 41.8136 392.746 45.1338 392.525L45.4658 397.514ZM25.2621 398.549C21.9426 398.668 18.6036 398.765 15.2451 398.837L15.1375 393.838C18.4719 393.766 21.7866 393.671 25.0817 393.552L25.2621 398.549ZM5.11103 398.982C3.41225 398.994 1.70857 399 0 399V394C1.69672 394 3.3885 393.994 5.07536 393.982L5.11103 398.982Z" fill="black"/>
</svg>
